<?xml version="1.0" encoding="UTF-8"?>
<svg xmlns="http://www.w3.org/2000/svg" xmlns:xlink="http://www.w3.org/1999/xlink" viewBox="0 0 2240 2240">
  <defs>
    <style>
      .cls-1 {
        fill: url(#_Безымянный_градиент_59-18);
        opacity: .7;
      }

      .cls-1, .cls-2, .cls-3, .cls-4, .cls-5, .cls-6, .cls-7, .cls-8, .cls-9, .cls-10, .cls-11, .cls-12, .cls-13, .cls-14, .cls-15, .cls-16, .cls-17, .cls-18, .cls-19, .cls-20, .cls-21, .cls-22 {
        stroke-width: 0px;
      }

      .cls-2 {
        fill: url(#_Безымянный_градиент_59-12);
      }

      .cls-23 {
        isolation: isolate;
      }

      .cls-3 {
        fill: url(#_Безымянный_градиент_59-7);
      }

      .cls-4 {
        fill: url(#_Безымянный_градиент_59-8);
      }

      .cls-5 {
        fill: url(#_Безымянный_градиент_7-2);
      }

      .cls-5, .cls-21 {
        mix-blend-mode: multiply;
      }

      .cls-6 {
        fill: url(#_Безымянный_градиент_59-2);
      }

      .cls-7 {
        fill: url(#_Безымянный_градиент_59-6);
      }

      .cls-8 {
        fill: url(#_Безымянный_градиент_59-10);
      }

      .cls-9 {
        fill: #fff;
      }

      .cls-10 {
        fill: url(#_Безымянный_градиент_59);
      }

      .cls-11 {
        fill: url(#_Безымянный_градиент_59-5);
      }

      .cls-12 {
        fill: url(#_Безымянный_градиент_59-11);
      }

      .cls-13 {
        fill: url(#_Безымянный_градиент_59-9);
      }

      .cls-14 {
        fill: url(#_Безымянный_градиент_59-14);
      }

      .cls-15 {
        fill: url(#_Безымянный_градиент_59-4);
      }

      .cls-16 {
        fill: url(#_Безымянный_градиент_59-13);
      }

      .cls-17 {
        fill: url(#_Безымянный_градиент_59-17);
      }

      .cls-18 {
        fill: url(#_Безымянный_градиент_60);
      }

      .cls-19 {
        fill: url(#_Безымянный_градиент_59-3);
      }

      .cls-20 {
        fill: url(#_Безымянный_градиент_59-15);
      }

      .cls-21 {
        fill: url(#_Безымянный_градиент_7);
      }

      .cls-22 {
        fill: url(#_Безымянный_градиент_59-16);
      }
    </style>
    <radialGradient id="_Безымянный_градиент_60" data-name="Безымянный градиент 60" cx="981.84" cy="1083.34" fx="981.84" fy="1083.34" r="923.08" gradientUnits="userSpaceOnUse">
      <stop offset="0" stop-color="#4b20dd"/>
      <stop offset=".13" stop-color="#5120dd"/>
      <stop offset=".32" stop-color="#6323df"/>
      <stop offset=".54" stop-color="#8226e1"/>
      <stop offset=".79" stop-color="#ab2be5"/>
      <stop offset="1" stop-color="#d631e9"/>
    </radialGradient>
    <radialGradient id="_Безымянный_градиент_59" data-name="Безымянный градиент 59" cx="1788.24" cy="1193.25" fx="1788.24" fy="1193.25" r="736.82" gradientUnits="userSpaceOnUse">
      <stop offset="0" stop-color="#d631e9"/>
      <stop offset=".21" stop-color="#ab2be5"/>
      <stop offset=".46" stop-color="#8226e1"/>
      <stop offset=".68" stop-color="#6323df"/>
      <stop offset=".87" stop-color="#5120dd"/>
      <stop offset="1" stop-color="#4b20dd"/>
    </radialGradient>
    <radialGradient id="_Безымянный_градиент_7" data-name="Безымянный градиент 7" cx="999.06" cy="1206.45" fx="999.06" fy="1206.45" r="677.26" gradientTransform="translate(2147.72 81.48) rotate(-180) scale(1.04 -.86)" gradientUnits="userSpaceOnUse">
      <stop offset="0" stop-color="#190078"/>
      <stop offset="0" stop-color="#190178"/>
      <stop offset=".12" stop-color="#4e3b97"/>
      <stop offset=".25" stop-color="#7d6fb3"/>
      <stop offset=".37" stop-color="#a59bca"/>
      <stop offset=".5" stop-color="#c5bfdd"/>
      <stop offset=".62" stop-color="#dedbec"/>
      <stop offset=".75" stop-color="#f0eff6"/>
      <stop offset=".87" stop-color="#fbfbfc"/>
      <stop offset="1" stop-color="#fff"/>
    </radialGradient>
    <radialGradient id="_Безымянный_градиент_7-2" data-name="Безымянный градиент 7" cx="1121.54" cy="1187.79" fx="1121.54" fy="1187.79" r="677.25" gradientTransform="translate(2147.72 74.99) rotate(-180) scale(1.04 -.91)" xlink:href="#_Безымянный_градиент_7"/>
    <radialGradient id="_Безымянный_градиент_59-2" data-name="Безымянный градиент 59" cx="1375.37" cy="993.03" fx="1375.37" fy="993.03" r="2175.75" xlink:href="#_Безымянный_градиент_59"/>
    <radialGradient id="_Безымянный_градиент_59-3" data-name="Безымянный градиент 59" cx="1133.63" cy="1365.18" fx="1133.63" fy="1365.18" r="541.46" xlink:href="#_Безымянный_градиент_59"/>
    <radialGradient id="_Безымянный_градиент_59-4" data-name="Безымянный градиент 59" cx="1103.26" cy="1338.92" fx="1103.26" fy="1338.92" r="500.61" xlink:href="#_Безымянный_градиент_59"/>
    <radialGradient id="_Безымянный_градиент_59-5" data-name="Безымянный градиент 59" cx="1072.9" cy="1312.66" fx="1072.9" fy="1312.66" r="459.76" xlink:href="#_Безымянный_градиент_59"/>
    <radialGradient id="_Безымянный_градиент_59-6" data-name="Безымянный градиент 59" cx="1042.34" cy="1286.39" fx="1042.34" fy="1286.39" r="418.99" xlink:href="#_Безымянный_градиент_59"/>
    <radialGradient id="_Безымянный_градиент_59-7" data-name="Безымянный градиент 59" cx="1011.99" cy="1260.14" fx="1011.99" fy="1260.14" r="378.15" xlink:href="#_Безымянный_градиент_59"/>
    <radialGradient id="_Безымянный_градиент_59-8" data-name="Безымянный градиент 59" cx="981.65" cy="1233.88" fx="981.65" fy="1233.88" r="337.28" xlink:href="#_Безымянный_градиент_59"/>
    <radialGradient id="_Безымянный_градиент_59-9" data-name="Безымянный градиент 59" cx="951.3" cy="1207.55" fx="951.3" fy="1207.55" r="296.39" xlink:href="#_Безымянный_градиент_59"/>
    <radialGradient id="_Безымянный_градиент_59-10" data-name="Безымянный градиент 59" cx="920.96" cy="1181.29" fx="920.96" fy="1181.29" r="255.53" xlink:href="#_Безымянный_градиент_59"/>
    <radialGradient id="_Безымянный_градиент_59-11" data-name="Безымянный градиент 59" cx="890.62" cy="1155.04" fx="890.62" fy="1155.04" r="214.68" xlink:href="#_Безымянный_градиент_59"/>
    <radialGradient id="_Безымянный_градиент_59-12" data-name="Безымянный градиент 59" cx="860.27" cy="1128.87" fx="860.27" fy="1128.87" r="173.79" xlink:href="#_Безымянный_градиент_59"/>
    <radialGradient id="_Безымянный_градиент_59-13" data-name="Безымянный градиент 59" cx="829.91" cy="1102.59" fx="829.91" fy="1102.59" r="132.93" xlink:href="#_Безымянный_градиент_59"/>
    <radialGradient id="_Безымянный_градиент_59-14" data-name="Безымянный градиент 59" cx="600.84" cy="383.1" fx="600.84" fy="383.1" r="1649.73" xlink:href="#_Безымянный_градиент_59"/>
    <radialGradient id="_Безымянный_градиент_59-15" data-name="Безымянный градиент 59" cx="1375.37" cy="993.02" fx="1375.37" fy="993.02" r="2175.74" xlink:href="#_Безымянный_градиент_59"/>
    <radialGradient id="_Безымянный_градиент_59-16" data-name="Безымянный градиент 59" cx="1743.5" cy="437.58" fx="1743.5" fy="437.58" r="252.29" xlink:href="#_Безымянный_градиент_59"/>
    <radialGradient id="_Безымянный_градиент_59-17" data-name="Безымянный градиент 59" cx="1543.78" cy="327.43" fx="1543.78" fy="327.43" r="86.6" xlink:href="#_Безымянный_градиент_59"/>
    <radialGradient id="_Безымянный_градиент_59-18" data-name="Безымянный градиент 59" cx="244.8" cy="1007.11" fx="244.8" fy="1007.11" r="226.25" xlink:href="#_Безымянный_градиент_59"/>
  </defs>
  <g class="cls-23">
    <g id="_Layer_" data-name="&amp;lt;Layer&amp;gt;">
      <rect class="cls-9" width="2240" height="2240" transform="translate(2240 2240) rotate(180)"/>
      <path class="cls-18" d="m620.39,937.73c-754.61,447.12-88.85,1074.59,334.83,790.62,270.76-181.47,560.4-109.62,763.49-315.99,203.09-206.37,64.54-529.78-76.32-660.81-140.85-131.03-74.95-362.94-402.5-397.69-290.31-30.79-399.04,453.24-619.5,583.87Z"/>
      <path class="cls-10" d="m2078.41,1539c0,169.54-137.45,306.98-306.99,306.98s-306.98-137.44-306.98-306.98,137.44-306.99,306.98-306.99,306.99,137.45,306.99,306.99Z"/>
      <ellipse class="cls-21" cx="1099.78" cy="1112.23" rx="765.88" ry="631.6"/>
      <ellipse class="cls-21" cx="1099.78" cy="1112.23" rx="765.88" ry="631.6"/>
      <ellipse class="cls-5" cx="971.86" cy="1149.39" rx="765.88" ry="668.77"/>
      <path class="cls-6" d="m1151.31,1965.38c-85.26,0-163.94-13.14-234.94-39.3-95.02-35.02-171.82-91.49-228.26-167.84-57.82-78.21-91.24-175.56-96.63-281.51-5.63-110.54,17.97-226.36,70.15-344.24,47.15-106.5,143.16-263.28,271.25-383.89,170.45-160.51,355.56-223.8,550.17-188.09,355.49,65.21,312.13,331.01,270.21,588.06-11.16,68.43-22.7,139.2-25.87,203.74l-4.48-.22,4.48.22c-7.91,161.14-53.57,302.73-132.05,409.45-82.7,112.46-198.74,180.57-335.58,196.95-37.21,4.45-73.4,6.68-108.47,6.68Zm227.41-1405.56c-154.27,0-301.75,65.41-439.69,195.3-127.11,119.69-222.4,275.29-269.2,380.99-102.47,231.47-93.18,456.29,25.48,616.8,98.37,133.06,257.64,203.54,455.13,203.55,34.94,0,71.05-2.2,108.26-6.66,267.04-31.97,443.21-261.08,459.74-597.94,3.19-65.05,14.78-136.07,25.98-204.74,20.58-126.18,41.87-256.66,14.14-361.42-30.99-117.08-121.63-187.86-277.12-216.38-34.54-6.33-68.81-9.5-102.72-9.5Z"/>
      <g>
        <path class="cls-19" d="m1121.68,1905.14c-80.74,0-155.26-12.44-222.5-37.22-90-33.18-162.75-86.66-216.21-158.98-54.77-74.09-86.42-166.29-91.53-266.65-5.33-104.69,17.02-214.38,66.43-326.02,30.49-68.86,83.54-167.55,191.84-229.33,112.51-64.17,261.13-78.13,454.36-42.69,188.15,34.52,288.26,77.07,334.76,142.27,45.62,63.98,40.24,148.16,32.79,264.67-1.49,23.34-3.04,47.49-4.3,73.29l-4.48-.22,4.48.22c-7.49,152.61-50.74,286.69-125.06,387.77-78.33,106.53-188.25,171.04-317.87,186.55-35.24,4.22-69.51,6.33-102.72,6.33Zm-7.97-1070.83c-280.23,0-386.64,147.81-447.64,285.6-96.97,219.06-88.18,431.82,24.1,583.71,109.55,148.19,298.92,214.36,533.16,186.31,252.7-30.25,419.4-247.08,435.04-565.87,1.27-25.87,2.82-50.04,4.31-73.42,14.8-231.72,20.93-327.64-360.23-397.56-70.46-12.92-133.04-18.76-188.75-18.76Z"/>
        <path class="cls-15" d="m1092.23,1838.14c-74.64,0-143.54-11.5-205.7-34.41-83.22-30.67-150.48-80.13-199.92-147-50.64-68.5-79.9-153.75-84.63-246.55-4.93-96.78,15.73-198.18,61.41-301.37,28.19-63.67,77.24-154.92,177.39-212.04,104.01-59.33,241.4-72.25,420.02-39.48,173.92,31.9,266.49,71.26,309.5,131.58,42.22,59.21,37.24,137.04,30.37,244.75-1.38,21.57-2.8,43.87-3.97,67.71h0c-6.92,141.06-46.9,265.02-115.61,358.46-72.43,98.5-174.06,158.15-293.92,172.5-32.57,3.9-64.25,5.84-94.94,5.84Zm-7.34-989.37c-258.75,0-356.99,136.46-413.3,263.67-89.55,202.28-81.44,398.72,22.23,538.96,101.14,136.81,275.99,197.89,492.29,172,233.3-27.93,387.2-228.14,401.65-522.5,1.17-23.9,2.6-46.24,3.98-67.84,13.66-213.88,19.32-302.41-332.54-366.96-65.06-11.93-122.86-17.33-174.3-17.33Z"/>
        <path class="cls-11" d="m1062.77,1771.14c-68.54,0-131.8-10.57-188.89-31.6-76.44-28.17-138.22-73.6-183.62-135.02-46.51-62.92-73.39-141.22-77.74-226.45-4.53-88.87,14.45-181.98,56.39-276.72,25.88-58.47,70.94-142.28,162.94-194.76,95.53-54.49,221.69-66.35,385.69-36.26,159.71,29.3,244.72,65.45,284.25,120.9,38.82,54.44,34.25,125.91,27.93,224.84-1.26,19.79-2.57,40.25-3.64,62.12-6.36,129.52-43.07,243.33-106.16,329.14-66.53,90.48-159.88,145.26-269.97,158.44-29.9,3.58-58.99,5.37-87.17,5.37Zm-6.71-907.9c-237.28,0-327.33,125.11-378.96,241.73-82.11,185.5-74.69,365.63,20.36,494.21,78.78,106.57,206.38,163.02,364.62,163.03,28.01,0,56.96-1.76,86.79-5.33,213.9-25.61,355-209.2,368.25-479.12h0c1.08-21.94,2.39-42.44,3.65-62.26,12.53-196.04,17.71-277.18-304.86-336.36-59.66-10.95-112.69-15.9-159.86-15.9Z"/>
        <path class="cls-7" d="m1033.31,1704.14c-62.44,0-120.07-9.62-172.08-28.79-69.65-25.67-125.95-67.07-167.33-123.04-88.41-119.59-95.5-286.68-19.48-458.43,23.58-53.28,64.64-129.64,148.49-177.46,87.05-49.65,201.97-60.47,351.35-33.06,301.11,55.24,295.9,136.69,284.5,315.14-1.15,18.01-2.34,36.64-3.32,56.55l-4.48-.22,4.48.22c-5.79,117.98-39.24,221.65-96.72,299.83-60.62,82.45-145.7,132.38-246.02,144.38-27.24,3.26-53.73,4.89-79.4,4.89Zm-6.08-826.43c-215.76,0-297.67,113.76-344.61,219.8-74.69,168.72-67.95,332.54,18.49,449.47,84.32,114.06,230.12,164.97,410.54,143.38,194.5-23.28,322.8-190.26,334.85-435.75.98-19.98,2.17-38.63,3.32-56.68,11.39-178.19,16.1-251.95-277.18-305.76-54.27-9.96-102.5-14.46-145.41-14.46Z"/>
        <path class="cls-3" d="m1003.24,1637.17c-132.49,0-239.45-47.47-305.69-137.08-79.79-107.93-86.21-258.71-17.61-413.68,21.29-48.08,58.34-117,134.04-160.18,78.56-44.81,182.25-54.58,317.02-29.85,271.81,49.86,267.11,123.4,256.82,284.54-1.04,16.24-2.11,33.03-2.99,50.96h0c-5.23,106.44-35.4,199.98-87.27,270.52-54.73,74.42-131.52,119.49-222.07,130.33-24.82,2.97-48.93,4.44-72.24,4.44Zm-4.83-745c-194.29,0-268.02,102.4-310.28,197.87-67.26,151.94-61.2,299.45,16.62,404.72,75.91,102.68,207.18,148.5,369.66,129.07,175.09-20.96,290.61-171.31,301.46-392.39.88-18.01,1.96-34.83,3-51.1,10.25-160.35,14.49-226.73-249.49-275.15-48.87-8.97-92.32-13.02-130.96-13.02Z"/>
        <path class="cls-4" d="m973.84,1570.17c-118.16,0-213.55-42.35-272.65-122.29-71.17-96.28-76.91-230.75-15.73-368.93,18.99-42.89,52.04-104.36,119.58-142.89,70.07-39.97,162.54-48.68,282.68-26.64,242.51,44.49,238.32,110.12,229.13,253.93-.92,14.46-1.88,29.41-2.66,45.39h0c-4.66,94.89-31.57,178.29-77.82,241.2-48.83,66.39-117.33,106.6-198.13,116.27-22.12,2.65-43.62,3.96-64.4,3.96Zm-4.27-663.53c-172.79,0-238.35,91.05-275.93,175.93-59.83,135.16-54.46,266.36,14.75,359.97,67.5,91.31,184.27,132.05,328.79,114.76,155.69-18.63,258.41-152.37,268.06-349.01.79-16.04,1.75-31.03,2.67-45.52,9.1-142.51,12.87-201.5-221.81-244.55-43.49-7.98-82.15-11.59-116.53-11.59Z"/>
        <path class="cls-13" d="m946.36,1503.03c-103.86,0-190.1-37.8-241.53-107.36-62.55-84.62-67.61-202.78-13.86-324.18,16.69-37.69,45.74-91.73,105.13-125.6,61.59-35.13,142.82-42.8,248.35-23.43,213.22,39.11,209.53,96.84,201.45,223.33-.8,12.54-1.65,25.79-2.34,39.81h0c-4.09,83.35-27.73,156.62-68.37,211.88-42.92,58.37-103.15,93.72-174.18,102.22-18.67,2.23-36.93,3.34-54.65,3.34Zm-5.61-581.92c-151.3,0-208.7,79.7-241.59,154-52.4,118.38-47.71,233.28,12.87,315.22,59.09,79.93,161.34,115.6,287.91,100.46,136.29-16.32,226.21-133.43,234.66-305.65l4.48.22-4.48-.22c.69-14.07,1.54-27.36,2.34-39.94,7.96-124.67,11.26-176.27-194.13-213.95-38.1-6.99-71.96-10.15-102.08-10.15Z"/>
        <path class="cls-8" d="m916.7,1436.04c-89.52,0-163.87-32.6-208.22-92.58-53.94-72.97-58.31-174.81-11.99-279.44,35.16-79.42,101.55-165.81,304.69-128.54,183.93,33.74,180.74,83.56,173.77,192.74-.69,10.77-1.42,22.16-2.01,34.22-7.48,152.45-87.62,256.19-209.15,270.73-16.08,1.93-31.81,2.87-47.08,2.87Zm-4.77-500.46c-129.81,0-179.04,68.35-207.25,132.07-44.98,101.6-40.97,200.19,11,270.48,50.68,68.56,138.43,99.15,247.04,86.14,116.89-13.99,194.01-114.49,201.26-262.27h0c.59-12.11,1.33-23.54,2.02-34.36,6.83-106.82,9.65-151.04-166.44-183.35-32.71-6-61.78-8.71-87.63-8.71Z"/>
        <path class="cls-12" d="m887.04,1369.06c-75.18,0-137.65-27.41-174.92-77.82-45.32-61.3-49.01-146.84-10.12-234.69,29.55-66.74,85.33-139.33,255.9-108.04,154.63,28.36,151.96,70.28,146.09,162.13-.58,9.02-1.19,18.55-1.68,28.64-6.29,128.02-73.63,215.14-175.76,227.36-13.5,1.62-26.69,2.42-39.51,2.42Zm-3.94-419.02c-108.31,0-149.38,57-172.9,110.14-37.55,84.82-34.22,167.09,9.13,225.73,42.27,57.18,115.47,82.69,206.16,71.84,97.49-11.67,161.81-95.55,167.87-218.9l4.48.22-4.48-.22c.5-10.13,1.11-19.71,1.69-28.78,5.86-91.56,8.04-125.82-138.76-152.75-27.32-5.01-51.6-7.28-73.19-7.28Z"/>
        <path class="cls-2" d="m857.39,1302.08c-60.85,0-111.43-22.2-141.62-63.05-36.7-49.65-39.71-118.88-8.25-189.94,22.07-49.85,67.54-113.16,207.12-87.55,125.33,23,123.16,57.01,118.4,131.53-.47,7.26-.95,14.94-1.35,23.06h0c-5.09,103.59-59.64,174.09-142.36,183.99-10.91,1.31-21.57,1.96-31.93,1.96Zm-3.12-337.57c-86.82,0-119.72,45.64-138.56,88.2-30.12,68.04-27.47,134,7.26,180.99,33.86,45.8,92.56,66.23,165.29,57.53,78.09-9.35,129.62-76.61,134.47-175.53.4-8.17.89-15.89,1.36-23.2,4.67-73.2,6.42-100.59-111.08-122.15-21.94-4.02-41.42-5.84-58.74-5.84Z"/>
        <path class="cls-16" d="m827.73,1235.09c-46.52,0-85.2-17-108.31-48.27-28.09-37.99-30.41-90.91-6.38-145.2,16.89-38.15,51.67-86.61,158.33-67.05,96.04,17.62,94.26,45.46,90.72,100.93-.35,5.51-.72,11.33-1.03,17.48-3.89,79.16-45.64,133.04-108.97,140.62-8.32,1-16.46,1.49-24.36,1.49Zm-2.28-256.11c-65.33,0-90.06,34.29-104.22,66.27-22.69,51.26-20.73,100.92,5.39,136.24,25.45,34.43,69.63,49.77,124.41,43.22,58.69-7.03,97.42-57.67,101.08-132.16h0c.31-6.2.68-12.07,1.03-17.62,3.5-54.84,4.81-75.36-83.4-91.54-16.54-3.03-31.23-4.41-44.29-4.41Z"/>
      </g>
      <path class="cls-14" d="m1920.59,1446.22c311.42-658.79-663-611.45-927.06-761.43-264.05-149.98-362.53-221.48-514.89-166.43-223.58,80.78-331.72,827.26,57.2,971.67,300.7,111.65,391.27,12.47,723.4,77.16,180.63,35.18,561.82,89.6,661.35-120.96Z"/>
      <path class="cls-20" d="m1259.78,1958.7l-1.07-8.89c267.04-31.97,443.21-261.09,459.74-597.94,3.19-65.05,14.78-136.07,25.98-204.74,20.58-126.18,41.87-256.66,14.14-361.42-30.99-117.08-121.63-187.86-277.12-216.38l1.62-8.81c355.49,65.21,312.13,331.01,270.21,588.06-11.16,68.43-22.7,139.2-25.87,203.74-7.91,161.14-53.57,302.73-132.05,409.45-82.7,112.46-198.74,180.57-335.58,196.95Z"/>
      <path class="cls-22" d="m1842.85,555.96c0,58.05-47.06,105.11-105.11,105.11s-105.11-47.06-105.11-105.11,47.06-105.11,105.11-105.11,105.11,47.06,105.11,105.11Z"/>
      <path class="cls-17" d="m1577.89,368.07c0,19.93-16.16,36.08-36.08,36.08s-36.08-16.15-36.08-36.08,16.15-36.08,36.08-36.08,36.08,16.15,36.08,36.08Z"/>
      <path class="cls-1" d="m333.9,1113.28c0,52.06-42.2,94.26-94.26,94.26s-94.27-42.2-94.27-94.26,42.2-94.26,94.27-94.26,94.26,42.2,94.26,94.26Z"/>
    </g>
  </g>
</svg>