<?xml version="1.0" encoding="UTF-8"?>
<svg xmlns="http://www.w3.org/2000/svg" viewBox="0 0 40 40">
  <defs>
    <style>
      .cls-1 {
        fill: #96ff00;
      }

      .cls-1, .cls-2, .cls-3 {
        stroke-width: 0px;
      }

      .cls-3 {
        fill: #9b00ff;
      }
    </style>
  </defs>
  <g id="Layer_2" data-name="Layer 2">
    <rect class="cls-1" x="6.08" y="6.43" width="26.23" height="24.7"/>
    <rect class="cls-3" x="5.64" y="8.62" width="27.33" height="22.86"/>
  </g>
  <g id="Layer_1" data-name="Layer 1">
    <path class="cls-2" d="m17.05,29.1l14.15-14.15-2.3-2.25-11.85,11.85-6-6-2.25,2.25,8.25,8.3Zm2.95,10.9c-2.73,0-5.32-.53-7.75-1.58s-4.56-2.48-6.38-4.3-3.25-3.94-4.3-6.38-1.58-5.02-1.58-7.75.53-5.37,1.58-7.8,2.48-4.55,4.3-6.35,3.94-3.23,6.38-4.28,5.02-1.58,7.75-1.58,5.37.53,7.8,1.58,4.55,2.48,6.35,4.28,3.23,3.92,4.28,6.35,1.58,5.03,1.58,7.8-.53,5.32-1.58,7.75-2.48,4.56-4.28,6.38-3.92,3.25-6.35,4.3-5.03,1.58-7.8,1.58Z"/>
  </g>
</svg>